<?xml version="1.0" encoding="UTF-8" standalone="no"?><!DOCTYPE svg PUBLIC "-//W3C//DTD SVG 1.1//EN" "http://www.w3.org/Graphics/SVG/1.1/DTD/svg11.dtd"><svg width="100%" height="100%" viewBox="0 0 168 168" version="1.1" xmlns="http://www.w3.org/2000/svg" xmlns:xlink="http://www.w3.org/1999/xlink" xml:space="preserve" xmlns:serif="http://www.serif.com/" style="fill-rule:evenodd;clip-rule:evenodd;stroke-linejoin:round;stroke-miterlimit:2;"><g id="Layer-1" serif:id="Layer 1"><path d="M167.245,83.622c-0,46.183 -37.439,83.624 -83.623,83.624c-46.183,0 -83.622,-37.441 -83.622,-83.624c0,-46.183 37.439,-83.622 83.622,-83.622c46.184,0 83.623,37.439 83.623,83.622" style="fill:#00b8f1;fill-rule:nonzero;"/><path d="M119.137,88.233l-13.023,-0c-2.354,0.006 -4.601,0.959 -6.698,1.702l-0,-17.129c0.007,-3.638 3.058,-6.693 6.698,-6.698l11.81,0.001c4.177,-0.004 7.525,1.222 9.596,2.957c2.048,1.778 3.216,3.853 3.28,7.5c-0.022,3.918 -1.268,6.631 -3.138,8.525c-1.899,1.874 -4.606,3.121 -8.525,3.142m14.932,21.631c-2.866,-3.071 -7.4,-9.251 -7.4,-9.251c4.005,-1.126 7.607,-3.179 10.464,-6.048c4.588,-4.566 7.086,-11.036 7.063,-17.999c0.062,-7.233 -3.114,-13.736 -8.13,-17.813c-4.995,-4.124 -11.434,-6.037 -18.142,-6.04l-11.81,-0c-11.095,0.027 -20.064,8.999 -20.092,20.093l-0,49.589l13.394,-0l-0,-14.07c0.007,-3.64 3.058,-6.694 6.698,-6.7l5.336,-0l-0,0.001l14.41,17.649l1.01,1.239c1.087,1.048 2.522,1.734 4.114,1.866l-0,0.015l0.293,-0c0.092,0.004 0.184,0.015 0.279,0.015c0.092,-0 0.183,-0.011 0.273,-0.015l7.925,-0l0.02,-10.831c-0,-0 -3.27,0.913 -5.705,-1.7" style="fill:#fff;fill-rule:nonzero;"/><path d="M77.325,54.863l-13.246,0l-0.008,21.651c-0.251,8.071 -7.808,10.681 -13.829,10.765c-6.881,-0.096 -14.126,-3.914 -14.126,-14.392l-0.002,-18.024l-13.065,0l0.002,18.024c0,8.177 2.829,15.165 8.182,20.21c4.843,4.563 11.481,7.125 18.74,7.247l0,0.005c0.09,0 0.18,-0.002 0.269,-0.002c0.09,0 0.18,0.002 0.27,0.002l0,-0.005c4.871,-0.084 12.033,-3.263 13.418,-6.072l-0.001,5.965c0,7.904 -10.054,13.061 -12.76,14.417l0.194,0.233c-0.067,0.032 -0.134,0.066 -0.194,0.097l8.416,10.175c4.87,-2.84 17.679,-8.52 17.74,-26.384l0,-43.912Z" style="fill:#fff;fill-rule:nonzero;"/></g></svg>