<svg clip-rule="evenodd" fill-rule="evenodd" stroke-linejoin="round" stroke-miterlimit="2" viewBox="0 0 168 168" xmlns="http://www.w3.org/2000/svg"><g fill-rule="nonzero"><path d="m167.245 83.622c0 46.183-37.439 83.624-83.623 83.624-46.183 0-83.622-37.441-83.622-83.624s37.439-83.622 83.622-83.622c46.184 0 83.623 37.439 83.623 83.622" fill="#00b8f1"/><g fill="#fff"><path d="m119.137 88.233h-13.023c-2.354.006-4.601.959-6.698 1.702v-17.129c.007-3.638 3.058-6.693 6.698-6.698l11.81.001c4.177-.004 7.525 1.222 9.596 2.957 2.048 1.778 3.216 3.853 3.28 7.5-.022 3.918-1.268 6.631-3.138 8.525-1.899 1.874-4.606 3.121-8.525 3.142m14.932 21.631c-2.866-3.071-7.4-9.251-7.4-9.251 4.005-1.126 7.607-3.179 10.464-6.048 4.588-4.566 7.086-11.036 7.063-17.999.062-7.233-3.114-13.736-8.13-17.813-4.995-4.124-11.434-6.037-18.142-6.04h-11.81c-11.095.027-20.064 8.999-20.092 20.093v49.589h13.394v-14.07c.007-3.64 3.058-6.694 6.698-6.7h5.336v.001l14.41 17.649 1.01 1.239c1.087 1.048 2.522 1.734 4.114 1.866v.015h.293c.092.004.184.015.279.015.092 0 .183-.011.273-.015h7.925l.02-10.831s-3.27.913-5.705-1.7"/><path d="m77.325 54.863h-13.246l-.008 21.651c-.251 8.071-7.808 10.681-13.829 10.765-6.881-.096-14.126-3.914-14.126-14.392l-.002-18.024h-13.065l.002 18.024c0 8.177 2.829 15.165 8.182 20.21 4.843 4.563 11.481 7.125 18.74 7.247v.005c.09 0 .18-.002.269-.002.09 0 .18.002.27.002v-.005c4.871-.084 12.033-3.263 13.418-6.072l-.001 5.965c0 7.904-10.054 13.061-12.76 14.417l.194.233c-.067.032-.134.066-.194.097l8.416 10.175c4.87-2.84 17.679-8.52 17.74-26.384z"/></g></g></svg>